#tb 0: 1/25
#media_type 0: video
#codec_id 0: rawvideo
#dimensions 0: 352x288
#sar 0: 1/1
0,          1,          1,        1,   152064, 0x4c5d7fe0
0,          2,          2,        1,   152064, 0xc8857ae1
0,          3,          3,        1,   152064, 0x3232f092
0,          4,          4,        1,   152064, 0x5bc481c7
0,          5,          5,        1,   152064, 0x91fec184
